<svg xmlns="http://www.w3.org/2000/svg" viewBox="0 0 1774 887">
<title>Vibe English 鼠尾草綠聊天介面</title>
<defs><clipPath id="screen"><path d="M982 493L1337 487L1328 760Q1326 800 1291 800L998 790Q965 789 965 758Z"/></clipPath></defs>
<g clip-path="url(#screen)" font-family="Arial,Microsoft JhengHei,sans-serif">
<path d="M982 493L1337 487L1335 815L956 804Z" fill="#f5f7fa"/>
<path d="M1302.1665 502.8166L1304.9134 502.9764L1307.5815 503.5319L1310.1050 504.4699L1312.4215 505.7679L1314.4737 507.3944L1316.2103 509.3096L1317.5881 511.4664L1318.5724 513.8119L1319.1386 516.2879L1319.2722 518.8332L1317.0373 586.2397L1316.7328 588.8137L1315.9976 591.3251L1314.8497 593.7115L1313.3177 595.9137L1311.4397 597.8770L1309.2626 599.5527L1306.8405 600.8995L1304.2338 601.8842L1301.5071 602.4827L1298.7280 602.6809L1006.7776 602.2176L1004.2725 602.0208L1001.8526 601.4435L999.5776 600.5004L997.5031 599.2154L995.6799 597.6203L994.1524 595.7548L992.9578 593.6649L992.1247 591.4020L991.6734 589.0217L991.6145 586.5822L995.2285 522.6732L995.5611 520.2543L996.2775 517.8908L997.3601 515.6402L998.7825 513.5574L1000.5100 511.6935L1002.5005 510.0939L1004.7056 508.7980L1007.0714 507.8376L1009.5403 507.2367L1012.0517 507.0103Z" fill="#e6f2eb" stroke="#cfdfd5"/>
<text transform="matrix(0.9414 -0.0097 -0.0507 0.9120 1007.8640 531.6314)" font-size="17" fill="#263344" font-weight="400">Welcome! What would you</text>
<text transform="matrix(0.9426 -0.0064 -0.0509 0.9148 1006.6960 552.6392)" font-size="17" fill="#263344" font-weight="400">like to order?</text>
<path d="M1016.4791 563.5739L1018.6918 563.7326L1020.8331 564.2267L1022.8503 565.0445L1024.6936 566.1663L1026.3172 567.5648L1027.6808 569.2057L1028.7504 571.0487L1029.4993 573.0485L1029.9086 575.1556L1029.9679 577.3178L1029.9679 577.3178L1029.6757 579.4817L1029.0389 581.5934L1028.0734 583.6007L1026.8030 585.4537L1025.2594 587.1064L1023.4810 588.5179L1021.5119 589.6534L1019.4011 590.4850L1017.2009 590.9924L1014.9658 591.1632L1014.9658 591.1632L1012.7510 590.9937L1010.6112 590.4885L1008.5989 589.6603L1006.7636 588.5300L1005.1502 587.1256L1003.7979 585.4821L1002.7397 583.6399L1002.0012 581.6444L1001.6003 579.5445L1001.5464 577.3918L1001.5464 577.3918L1001.8408 575.2388L1002.4761 573.1382L1003.4366 571.1413L1004.6990 569.2968L1006.2325 567.6500L1007.9996 566.2411L1009.9572 565.1047L1012.0576 564.2689L1014.2495 563.7543L1016.4791 563.5739Z" fill="#f8fbf9" stroke="none"/>
<path d="M1060.3424 563.3581L1062.5885 563.5178L1064.7634 564.0155L1066.8135 564.8393L1068.6882 565.9693L1070.3409 567.3780L1071.7307 569.0310L1072.8229 570.8876L1073.5901 572.9021L1074.0131 575.0248L1074.0811 577.2030L1074.0811 577.2030L1073.7923 579.3829L1073.1536 581.5103L1072.1809 583.5325L1070.8984 585.3991L1069.3377 587.0641L1067.5379 588.4861L1065.5436 589.6301L1063.4044 590.4678L1061.1733 590.9789L1058.9056 591.1510L1058.9056 591.1510L1056.6574 590.9803L1054.4840 590.4713L1052.4389 589.6370L1050.5723 588.4984L1048.9299 587.0837L1047.5517 585.4280L1046.4712 583.5722L1045.7146 581.5620L1045.3002 579.4467L1045.2379 577.2781L1045.2379 577.2781L1045.5289 575.1092L1046.1660 572.9932L1047.1337 570.9815L1048.4082 569.1235L1049.9584 567.4645L1051.7467 566.0452L1053.7292 564.9003L1055.8578 564.0583L1058.0803 563.5398L1060.3424 563.3581Z" fill="#f8fbf9" stroke="none"/>
<path d="M1104.8583 563.1390L1107.1385 563.2998L1109.3478 563.8011L1111.4316 564.6309L1113.3384 565.7693L1115.0211 567.1884L1116.4377 568.8537L1117.5529 570.7241L1118.3389 572.7536L1118.7760 574.8921L1118.8529 577.0866L1118.8529 577.0866L1118.5676 579.2827L1117.9271 581.4260L1116.9472 583.4632L1115.6521 585.3438L1114.0742 587.0212L1112.2525 588.4539L1110.2325 589.6064L1108.0643 590.4504L1105.8016 590.9653L1103.5006 591.1387L1103.5006 591.1387L1101.2181 590.9667L1099.0103 590.4539L1096.9316 589.6134L1095.0330 588.4663L1093.3610 587.0411L1091.9562 585.3731L1090.8529 583.5036L1090.0778 581.4784L1089.6496 579.3474L1089.5784 577.1627L1089.5784 577.1627L1089.8660 574.9778L1090.5050 572.8460L1091.4798 570.8194L1092.7666 568.9475L1094.3340 567.2762L1096.1438 565.8463L1098.1519 564.6929L1100.3092 563.8445L1102.5631 563.3222L1104.8583 563.1390Z" fill="#f8fbf9" stroke="none"/>
<g transform="matrix(0.9431 -0.0042 -0.0510 0.9164 1004.9891 566.3785)" fill="none" stroke="#526477" stroke-width="1.8" stroke-linecap="round" stroke-linejoin="round"><path d="M2 8H6L11 4V20L6 16H2Z M15 8Q19 12 15 16 M18 5Q25 12 18 19"/></g>
<text transform="matrix(0.9594 -0.0015 -0.0484 0.9261 1051.6046 583.7404)" font-size="18" fill="#526477" font-weight="500">譯</text>
<g transform="matrix(0.9713 -0.0043 -0.0459 0.9300 1093.0441 565.9859)" fill="none" stroke="#526477" stroke-width="1.8" stroke-linecap="round" stroke-linejoin="round"><path d="M1 12Q12 0 23 12Q12 24 1 12Z"/><circle cx="12" cy="12" r="3.4"/></g>
<path d="M1298.3281 614.2966L1301.0954 614.5090L1303.7832 615.1223L1306.3252 616.1220L1308.6586 617.4840L1310.7256 619.1751L1312.4747 621.1541L1313.8621 623.3724L1314.8532 625.7753L1315.4229 628.3033L1315.5567 630.8940L1314.3264 667.9991L1314.0198 670.6005L1313.2800 673.1329L1312.1254 675.5334L1310.5846 677.7424L1308.6960 679.7049L1306.5067 681.3724L1304.0712 682.7036L1301.4501 683.6659L1298.7085 684.2358L1295.9143 684.3997L1069.7931 681.0695L1067.2173 680.8342L1064.7272 680.2107L1062.3841 679.2147L1060.2453 677.8714L1058.3633 676.2143L1056.7838 674.2844L1055.5451 672.1294L1054.6773 669.8022L1054.2011 667.3600L1054.1280 664.8625L1055.9683 629.3093L1056.2986 626.8290L1057.0242 624.4127L1058.1274 622.1192L1059.5813 620.0045L1061.3504 618.1204L1063.3917 616.5128L1065.6554 615.2213L1068.0865 614.2777L1070.6254 613.7055L1073.2102 613.5190Z" fill="#eaf0f5" stroke="none"/>
<text transform="matrix(0.9699 0.0074 -0.0475 0.9369 1070.9626 638.7665)" font-size="17" fill="#263344" font-weight="400">A coffee, please.</text>
<g transform="matrix(0.9704 0.0090 -0.0475 0.9382 1070.4877 648.1419)" fill="none" stroke="#526477" stroke-width="1.8" stroke-linecap="round" stroke-linejoin="round"><path d="M2 8H6L11 4V20L6 16H2Z M15 8Q19 12 15 16 M18 5Q25 12 18 19"/></g>
<path d="M1291.6181 717.6864L1295.8759 718.0869L1300.0133 719.1083L1303.9282 720.7266L1307.5236 722.9034L1310.7100 725.5861L1313.4076 728.7094L1315.5485 732.1966L1317.0785 735.9617L1317.9586 739.9115L1318.1660 743.9479L1317.7444 756.8388L1317.2728 760.8677L1316.1332 764.7804L1314.3541 768.4793L1311.9798 771.8719L1309.0698 774.8737L1305.6971 777.4101L1301.9461 779.4182L1297.9108 780.8489L1293.6918 781.6674L1289.3943 781.8547L1000.1897 773.0544L996.3148 772.6337L992.5741 771.6198L989.0595 770.0390L985.8569 767.9313L983.0443 765.3495L980.6898 762.3580L978.8502 759.0305L977.5693 755.4488L976.8777 751.7007L976.7915 747.8776L977.4851 735.6981L978.0051 731.8990L979.1184 728.2089L980.7978 724.7175L983.0026 721.5096L985.6792 718.6633L988.7630 716.2479L992.1792 714.3227L995.8451 712.9353L999.6714 712.1202L1003.5650 711.8984Z" fill="#ffffff" stroke="none"/>
<path d="M1245.5152 724.5736L1248.5811 724.8678L1251.5575 725.6124L1254.3709 726.7898L1256.9518 728.3716L1259.2360 730.3196L1261.1667 732.5860L1262.6955 735.1152L1263.7840 737.8450L1264.4047 740.7077L1264.5417 743.6324L1264.1469 754.4453L1263.7962 757.3634L1262.9662 760.1974L1261.6774 762.8767L1259.9620 765.3348L1257.8626 767.5105L1255.4316 769.3499L1252.7298 770.8076L1249.8243 771.8477L1246.7874 772.4450L1243.6945 772.5852L1037.1970 766.5655L1034.3305 766.2595L1031.5608 765.5174L1028.9560 764.3582L1026.5801 762.8111L1024.4910 760.9146L1022.7395 758.7158L1021.3681 756.2689L1020.4098 753.6342L1019.8876 750.8763L1019.8139 748.0625L1020.3734 737.6809L1020.7493 734.8838L1021.5654 732.1669L1022.8018 729.5965L1024.4283 727.2353L1026.4054 725.1410L1028.6849 723.3646L1031.2115 721.9499L1033.9236 720.9317L1036.7550 720.3353L1039.6367 720.1760Z" fill="#42755f" stroke="none"/>
<g transform="matrix(0.9509 0.0221 -0.0526 0.9373 990.1414 730.3709)" fill="none" stroke="#526477" stroke-width="1.8" stroke-linecap="round" stroke-linejoin="round"><rect x="1" y="5" width="22" height="15" rx="3"/><path d="M5 9H6 M10 9H11 M15 9H16 M19 9H20 M5 13H6 M10 13H11 M15 13H16 M6 17H18"/></g>
<g transform="matrix(0.9730 0.0225 -0.0486 0.9481 1058.4869 731.0115)" fill="none" stroke="#ffffff" stroke-width="1.8" stroke-linecap="round" stroke-linejoin="round"><rect x="8" y="2" width="8" height="14" rx="4"/><path d="M4 11V13A8 8 0 0 0 20 13V11 M12 21V26 M8 26H16"/></g>
<text transform="matrix(0.9873 0.0259 -0.0463 0.9571 1097.7227 751.0560)" font-size="19" fill="#ffffff" font-weight="600">按此說話</text>
<g transform="matrix(1.0457 0.0247 -0.0350 0.9836 1277.2439 739.0182)" fill="none" stroke="#526477" stroke-width="1.8" stroke-linecap="round" stroke-linejoin="round"><circle cx="3" cy="11" r="1.6" fill="#657184" stroke="none"/><circle cx="10" cy="11" r="1.6" fill="#657184" stroke="none"/><circle cx="17" cy="11" r="1.6" fill="#657184" stroke="none"/></g>
</g></svg>
